<svg version="1.1" xmlns="http://www.w3.org/2000/svg" viewBox="0 0 2048 1536" display="block">
  <path fill="#FCFAFA" d="M0 0h2046.25c2.92 5.178 3.05 39.852 1.17 46.169-.2.658-.57 1.356-.87 1.958 2.11 4.556 2.29 12.436.48 17.102-.09.249-.23.482-.34.723 2.36 5.554 2.32 194.602.45 198.947-.16.376-.35.738-.53 1.107 1.93 4.639 2.21 11.584.4 16.31-.1.257-.23.499-.35.748.81 1.813 1.17 3.392 1.26 5.391.67 15.613.11 31.469.12 47.112l.01 91.809c0 19.825 1.9 165.764-1.01 174.007-.07.196-.15.387-.23.58 2.27 5.943 2.41 22.235-.04 28.03 2.95 7.325 1.26 226.918 1.26 252.356l-.06 644.011c-.01 2.68.24 5.91-1 8.36-.22.44-.48.85-.72 1.28H0V0z"/>
  <path fill="#ACABAB" d="M1357.39 0h13.63a1494.86 1494.86 0 0115.43 25.561l90.14.202L1491.53 0h15.04a854.601 854.601 0 00-21.26 37.594 2941.88 2941.88 0 00-107.2-.05A1850.91 1850.91 0 001357.39 0z"/>
  <path fill="#FCFAFA" d="M1371.02 0h120.51l-14.94 25.763-90.14-.202A1494.86 1494.86 0 001371.02 0z"/>
  <path fill="#CF9E20" d="M1384.83 510.433a3025.01 3025.01 0 0173.71-.537c11.52 11.576 92.85 94.287 93.64 97.271-7.23 3.986-15.36 6.234-22.82 9.803a4881.22 4881.22 0 01-37.53-40.037c-23.07-25.091-48.76-59.158-86.15-60.033-4.33-.101-9 .602-13.02 2.225-2.69-2.799-5.23-5.802-7.83-8.692z"/>
  <path fill="#ACABAB" d="M598.237 1436.18c32.49.14 65.043-.16 97.524.41 18.105 26.28 34.664 53.67 53.09 79.7-5.056 6.14-9.489 12.42-12.739 19.71h-16.316c3.469-6.52 8.603-12.8 12.81-18.91a2147.96 2147.96 0 00-43.155-67.8 7037.02 7037.02 0 00-84.006.21c-13.387 22.8-29.034 44.28-42.326 67.19 4.089 6.56 8.619 12.9 12.95 19.31H559.88c-3.732-7.03-7.605-14.13-12.831-20.19 15.613-27.31 34.277-53.08 51.188-79.63zM1663.82 0h25.04c-.29.635-.41 1.37-.86 1.906-3.3 3.992-38.97 25.534-45.96 30.209a15283 15283 0 00-209.77 140.442l21.37 42.516c-2.97 7.324-15.12 28.72-15.23 33.74-4.73 3.436-10.06 6.17-15.15 9.053 6.05-13.502 12.92-26.613 18.92-40.139-6.54-13.826-14.36-27.416-21.81-40.774-14.29-4.516-28.2-11.592-41.81-17.865-3.24 3.007-6.95 5.569-10.48 8.235l-12.75-9.255c7.74-3.892 15.2-8.502 22.7-12.839a1418.83 1418.83 0 0043.82 17.528 7662.32 7662.32 0 01150.33-101.061c29.84-19.614 60.65-38.654 89.76-59.283.94-.663 1.4-1.395 1.88-2.413zM102.471 1284.41c50.391 27.92 98.198 60.68 148.554 88.61l-.078 162.98H223.55c4.317-2.97 9.083-5.1 13.797-7.36 1.167-48.84-.173-97.96.017-146.84-43.431-28.78-89.175-54.97-133.979-81.59-23.455 15.51-49.011 29.07-73.445 43.1-10.013 5.75-20.478 11.17-29.94 17.79v-17.8c35.278-17.29 68.809-38.67 102.471-58.89zM1854.84 0h26.02c-1.25 3.215-4.31 4.663-7.12 6.585-21.15 14.488-43.46 27.403-64.84 41.584l-268.36 177.267c-9.33 6.224-62.68 39.137-66.32 44.678-4.2-2.905-8.19-7.179-12.06-10.589 12.33-6.871 23.99-15.326 35.75-23.131l60.24-39.98a16071.8 16071.8 0 01196.74-129.427c10.59-6.889 96.4-60.905 99.24-64.773.46-.624.48-1.476.71-2.214z"/>
  <path fill="#FCFAFA" d="M605.445 1449.5a7037.02 7037.02 0 0184.006-.21 2147.96 2147.96 0 0143.155 67.8c-4.207 6.11-9.341 12.39-12.81 18.91H576.069c-4.331-6.41-8.861-12.75-12.95-19.31 13.292-22.91 28.939-44.39 42.326-67.19z"/>
  <path fill="#CF9E20" d="M600.879 1066.02c35.466.58 71.01.18 106.485.21 45.293 39.92 92.336 72.98 145.494 101.39l-16.087 2.44c-37.993 5.53-76.375 10.86-114.192 17.43-33.635-21.72-96.914-87.93-121.7-121.47z"/>
  <path fill="#ACABAB" d="M637.826 1344.69c-3.273-19.42-2.31-32.79 9.452-49.04 8.678-12 22.649-21.35 37.388-23.61 15.305-2.36 31.339 2.43 43.637 11.63a57.084 57.084 0 0122.091 37.71 54.99 54.99 0 01-10.927 41.18 57.006 57.006 0 01-37.925 21.92 59.197 59.197 0 01-44.447-12.04c-5.013-3.91-9.074-9.24-13.143-14.1-55.654 36.86-112.966 71.74-169.509 107.24-36.963 23.21-73.331 47.41-110.409 70.42h-27.139a16627.8 16627.8 0 00179.029-113.15l70.458-44.89c17.228-10.89 34.975-21.26 51.444-33.27z"/>
  <path fill="#FCFAFA" d="M690.037 1286.24c9.605-.31 18.427 1.33 26.67 6.51 9.468 5.96 15.778 15.52 18.107 26.42a43.487 43.487 0 01-5.798 32.69c-7.198 11.07-18.34 16.41-30.871 19.09-9.976.25-18.971-.78-27.588-6.21-9.545-6.02-16.404-16.13-18.844-27.11a41.583 41.583 0 016.117-32.24c7.648-11.51 19.038-16.63 32.207-19.15z"/>
  <path fill="#ACABAB" d="M1905 534.304c12.12 1.02 24.55.434 36.72.39a2669 2669 0 0159.16.2c6.52 5.72 22.2 33.185 28.36 42.399 5.65 8.436 11.76 16.386 17.57 24.67 2.27 5.943 2.41 22.235-.04 28.03-1.2 2.53-44.12 64.384-45.64 65.668-10.21-1.493-22.01-.492-32.36-.487l-63.2.076c-.04-.509.01-1.03-.11-1.526-1.67-6.844-46.88-76.038-51.69-79.598 5.7-3.704 49.36-72.235 51.23-79.822z"/>
  <path fill="#FCFAFA" d="M1912.52 546.498c8.89-1.386 18.97-.576 27.98-.546a2449.01 2449.01 0 0151.9.544c5.34 3.477 42.41 62.778 44.46 69.511 0 .239.03.481-.01.718-.45 3.147-38.55 62.688-42.42 65.778-2.91 2.877-71.08 1.437-80.63 1.419-.68-4.956-39.32-66.003-43.7-69.507 4.62-3.56 40.46-61.164 42.42-67.917z"/>
  <path fill="#ACABAB" d="M55.457 785.079a3805.91 3805.91 0 0096.856-.069c16.926 27.527 33.421 55.52 51.388 82.379-17.548 27.291-35.503 54.535-51.89 82.538a3170.64 3170.64 0 00-97.765.088C41.765 927.743 17.566 886.187 0 868.761v-2.469c14.281-15.857 24.742-33.314 36.25-51.151 6.396-9.913 13.468-19.768 19.207-30.062z"/>
  <path fill="#FCFAFA" d="M62.92 796.804l81.286.281c15.173 23.17 29.895 46.42 43.886 70.325-15.221 23.256-29.281 47.302-44.31 70.702-26.984.405-54.007.148-80.996.188-14.581-23.951-28.925-48.145-44.66-71.36 14.699-17.893 32.238-49.423 44.794-70.136z"/>
  <path fill="#000" d="M1441 765.044c21.35-54.341 52.22-97.602 107.44-121.51 21.18-9.17 55.88-17.661 78.53-13.036 3.78 3.623 6.48 14.486 6.23 19.685-.04.978-.11 1.042-.37 1.842-44.27-2.589-84.96 10.765-118.21 40.25-17.58 15.588-34.6 35.799-43.77 57.652-4.16 9.946-6.49 23.839-13.55 31.931-7.22 8.288-24.96 8.948-35.18 12.964a143.42 143.42 0 00-91.26 126.434c-.76 13.87 4 28.666-7.39 39.644-14.61 14.068-54.24 10.847-73.99 12.891a421.456 421.456 0 00-46.64 7.748c-85.6 19.401-183.78 79.671-188.29 176.771-.62 13.26-.83 26.56-1.15 39.83-5.31 7.62-10.42 15.53-16.4 22.63l-135.824 17.98c-13.146 1.71-32.157 6.49-44.788 6-12.139 2.55-24.782 3.71-37.078 5.35-34.172 4.56-68.88 7.73-102.843 13.48l-1.197-1.18c.004-.23.023-.47.012-.7-.19-4.13-1.355-6.03-4.283-8.88-4.224.34-7.37-.72-10.907-3.05-2.844-1.88-3.885-3.75-4.532-7.02l2.707-3.39 6.614 4.55a17249 17249 0 00197.309-25.26c41.011-5.26 82.182-9.73 123.05-16.02l7.497-10.7c2.891-69.93 10.013-111.36 64.173-161.14 38.38-35.288 92.57-59.706 143.15-70.838 25.42-5.594 50.86-8.085 76.78-9.733 6.28-.4 25.81-.125 29.77-5.088 1.27-1.598 1.53-4.593 1.62-6.61.39-8.966-.46-17.836.55-26.801a172.037 172.037 0 0152.42-105.054c23.47-22.008 49.16-33.399 79.8-41.622z"/>
  <path fill="#571311" d="M670.999 1252.82c9.4-5.19 100.751-15.12 119.279-16.82l-.633.97a206.544 206.544 0 00-3.927.23c-6.905.49-42.732 3.55-45.65 6.92 1.851 2.74 4.668 3.68 7.528 5.07 14.848 7.19 50.774-8.79 68.792-4.44-12.139 2.55-24.782 3.71-37.078 5.35-34.172 4.56-68.88 7.73-102.843 13.48l-1.197-1.18c.004-.23.023-.47.012-.7-.19-4.13-1.355-6.03-4.283-8.88z"/>
  <path fill="#FCFAFA" d="M1688.86 0h165.98c-.23.738-.25 1.59-.71 2.214-2.84 3.868-88.65 57.884-99.24 64.773a16071.8 16071.8 0 00-196.74 129.427l-60.24 39.98c-11.76 7.805-23.42 16.26-35.75 23.131-4.64-3.962-10.49-11.211-16.3-13.119-3.06-1.007-4.9.915-7.45 2.407.11-5.02 12.26-26.416 15.23-33.74l-21.37-42.516a15283 15283 0 01209.77-140.442c6.99-4.676 42.66-26.217 45.96-30.209.45-.536.57-1.27.86-1.906z"/>
  <path fill="#ACABAB" d="M1646.63 235.494c10.66-1.62 23.05-.499 33.86-.49l67.67.088c5.07 3.494 43.5 69.119 49.45 79.819a61.376 61.376 0 00-1.51 4.994c7.32 9.6 20.92 17.548 30.59 24.736 14.39 10.699 28.48 21.836 42.95 32.421 12 8.78 24.9 17.019 36.14 26.754 5.47 4.738 17.32 17.51 17.79 24.775a45.681 45.681 0 014.2.677c14.12 2.992 26.83 10.965 34.53 23.306 7.72 12.38 9.57 27.977 6.11 42.053-3.16 12.843-11.78 23.85-23.08 30.609-14.67 8.767-33.96 9.959-50.3 5.849-17.45-4.389-27.58-15.695-34.24-31.903-1.5-3.65-2.13-8.273-4.27-11.555-.24-.382-.51-.751-.77-1.127 4.15-9.598-.46-18.658 9.07-33.889 9.83-15.724 25.47-21.207 42.67-25.043-.12-.478-.17-.976-.35-1.432-2.95-7.486-110.15-88.767-121.08-93.201 0 .542.04 1.375-.08 1.947-1.19 6.077-33.48 57.789-38.33 61.488a5425.29 5425.29 0 00-100.69.334c-.09-.469-.12-.949-.26-1.406-1.56-5.348-39.21-67.248-44.48-75.03-1.11-1.629-2.36-2.795-3.98-3.913.38-.331.77-.649 1.15-.993 4.75-4.41 47-76.279 47.24-79.868z"/>
  <path fill="#FCFAFA" d="M1903.13 441.499c12.37-1.901 25.28-.185 35.89 6.754a39.436 39.436 0 0117.33 25.794c1.89 9.724.05 19.95-5.65 28.114-6.82 9.768-17.97 15.491-29.49 17.502-9.25 1.677-18.53 1.29-27.21-2.578a40.54 40.54 0 01-21.27-23.009 37.99 37.99 0 011.36-30.027c6.15-12.65 16.31-18.025 29.04-22.55zm-248.32-194.005c9.54-1.397 20.32-.497 29.98-.478l54.85-.017c.86.701.94.701 1.58 1.399 5.89 6.467 40.74 63.112 40.47 68.69-.19 2.406-37.23 63.057-40.99 66.419l-.86.654.61.139c-8.45 2.499-71.01.548-85.45.505.02-.209.07-.416.07-.626-.08-3.864-35.9-63.684-40.84-68.381.25-.187.52-.352.75-.562 3.7-3.353 39.5-63.692 39.83-67.742zM103.385 1300.21c44.804 26.62 90.548 52.81 133.979 81.59-.19 48.88 1.15 98-.017 146.84-4.714 2.26-9.48 4.39-13.797 7.36H0v-174.9c9.462-6.62 19.927-12.04 29.94-17.79 24.434-14.03 49.99-27.59 73.445-43.1z"/>
  <path fill="#000" d="M450.313 556.936l43.403.325c-14.429 32.106-26.642 63.774-34.686 98.103-30.845 131.637.725 263.758 71.003 377.246-7.063-.2-17.357-1.39-23.532 2.89-1.951 1.35-1.973 1.66-2.33 3.97.462.79.448.85 1.193 1.61 7.621 7.79 22.791 5.36 32.481 4.59 43.056 65.3 91.689 110.83 150.021 161.33-2.563 7.23-6.314 13.34-10.713 19.59 38.151-6.74 292.464-37.59 298.06-41.52 2.266-3.94 2.867-8.75 2.11-13.2-.911-.41-1.22-.63-2.354-.69-6.778-.36-39.998 7.07-49.278 8.58a5400.62 5400.62 0 01-134.745 19.89c-24.168 3.42-48.808 8.25-73.11 9.91-3.31.23-8.096.75-11.04-.97-2.478-1.46-2.995-4.18-3.745-6.75-.078-.27-62.313-56.17-69.121-62.8a630.938 630.938 0 01-78.999-94.62c54.574-.72 109.576-.97 164.134.34 43.129 40.49 89.518 76.66 143.784 101.22 13.755 6.22 27.845 1.94 41.212 10.11a1240.81 1240.81 0 01-17.193.19c-6.389.01-13.402.31-19.579-1.48-6.578-1.92-13.086-6.83-19.262-9.93-48.98-24.59-91.699-55.64-130.519-94.34-24.85-1.11-50.112-.22-75.008-.26a5167.9 5167.9 0 00-75.848.21c28.815 40.25 61.402 76.2 97.962 109.51 15.955 14.54 35.707 27.93 49.714 44.13 9.619-.33 19.624-2.33 29.181-3.68l52.066-7.39c60.723-8.66 122.301-16.62 182.247-29.64l1.326-19.57c-26.627-.41-53.649 1.37-80.204.11-31.7-1.51-143.074-74.71-165.375-98.86 35.854-1.92 72.619-.64 108.536-.57a18050.7 18050.7 0 00186.495-.2c-24.19 30.18-40.107 63.63-42.567 102.65-.75 11.91.69 26.51-2.762 37.82-.867 2.84-1.88 5.07-4.661 6.37-11.379 5.3-41.769 6.89-55.206 8.67l-140.136 18.02c-33.568 4.39-67.268 10.36-100.901 13.82-6.28.65-15.468 2.15-21.304-.22-12.821-5.19-25.836-17.53-36.638-26.32-74.47-60.57-141.777-156.4-177.593-245.403-53.537-133.036-52.615-271.112 3.481-402.791z"/>
  <path fill="#FCFAFA" d="M747.68 1050.85a21803.4 21803.4 0 01266.81.13c-13.27 18-21.726 36.1-28.668 57.27a167.659 167.659 0 00-6.411 29.2l-55.43.39c-9.811.08-20.373 1-30.066-.57-10.754-1.75-21.189-8.01-30.772-12.94-41.226-21.18-78.067-46.24-115.463-73.48z"/>
  <path fill="#CF9E20" d="M799.537 1067.47a9281.39 9281.39 0 00185.301-.21c-7.683 12.69-10.941 25.57-13.795 39.94l-2.288 14.95c-17.051-.14-66.436 3.13-79.269-2.44-11.502-4.98-86.757-44.31-89.949-52.24z"/>
  <path fill="#FCFAFA" d="M454.653 563.192l29.463.089c-11.18 24.68-21.059 50.297-27.772 76.575-34.934 136.765-8.553 266.237 62.575 386.254-5.96.09-11.1-.16-15.863 4.07-2.34 2.08-4.057 4.84-4.005 8.05.058 3.58 2.434 6.85 5.04 9.1 8.768 7.59 20.321 5.69 30.891 4.85 35.396 59.63 92.688 112.23 145.406 156.6.19.85.148 1.5-.12 2.34-2.317 7.21-8.622 12.39-15.015 15.82-15.104-7.92-29.302-19.88-42.256-30.85-72.629-61.47-140.778-159.49-174.629-248.563-46.878-123.344-48.231-263.199 6.285-384.335z"/>
  <path fill="#000" d="M510.758 557.445c15.726.241 121.095-2.196 126.405 2.918-.67 10.724-14.691 30.456-19.643 40.821-3.827 8.01-7.174 16.306-10.411 24.571a318.682 318.682 0 00-21.565 90.48c-8.127 88.222 19.017 175.267 66.72 249.061 14.461 22.371 30.984 43.144 47.977 63.604l.231 1.76c-5.341 2.94-135.747 1.33-155.685 1.32-25.005-38.067-45.394-82.386-59.461-125.65a453.713 453.713 0 0125.432-348.885z"/>
  <path fill="#FCFAFA" d="M514.819 563.323c38.84-.411 77.726-.101 116.569.047-26.945 44.799-45.057 93.041-51.235 145.138-10.37 87.436 15.335 175.719 60.901 249.988 13.873 22.612 29.776 43.554 46.176 64.354l1.106 1.49-.378 1.23c-10.08 2.93-28.772.56-39.833.57a9566.05 9566.05 0 01-99.844.07c-25.756-40.711-47.046-86.374-60.692-132.604-31.525-106.809-26.821-231.234 27.23-330.283z"/>
  <path fill="#CF9E20" d="M524.301 574.544a5359.95 5359.95 0 0079.219.423c-13.538 25.68-23.205 53.549-30.378 81.629-22.291 87.258-9.222 180.196 27.576 261.609 14.345 31.737 32.414 62.011 50.186 91.915-2.905 2.65-81.863.73-93.376 1.59a579.861 579.861 0 01-27.951-51.86 469.244 469.244 0 01-32.111-301.164c6.592-28.643 16.835-56.542 26.835-84.142zm29.43-52.518c9.898-16.76 19.466-34.093 31.143-49.685 61.178-81.686 153.804-142.607 249.261-176.48 126.81-44.999 267.545-39.352 393.455 5.169 19.35 6.842 38.48 13.9 57.04 22.731 4.68 9.184 10.48 17.005 20.23 21.188 11.21 4.808 22.06 3.063 33.07-1.182 12.05 9.184 25.37 16.617 37.77 25.35a146.586 146.586 0 00-.95 5.554 41.309 41.309 0 007.78 30.856c7.25 9.524 17.2 13.435 28.71 15.072 21.97 24.478 46.3 48.378 66.5 74.269l-7.53.121c-6.1-3.165-61.78-.789-73.65-.708-10.89-9.987-20.71-21.24-31.54-31.339-19.67-18.33-41.33-34.346-63.73-49.171-111.32-73.677-261.11-94.801-390.575-68.081a475.836 475.836 0 00-224.19 113.844c-20.729 18.616-40.619 39.105-55.972 62.45l-76.822.042z"/>
  <path fill="#FCFAFA" d="M1922.84 0h123.41c2.92 5.178 3.05 39.852 1.17 46.169-.2.658-.57 1.356-.87 1.958 2.11 4.556 2.29 12.436.48 17.102-.09.249-.23.482-.34.723 2.36 5.554 2.32 194.602.45 198.947-.16.376-.35.738-.53 1.107 1.93 4.639 2.21 11.584.4 16.31-.1.257-.23.499-.35.748-19.97 11.611-40.2 22.757-60.11 34.472-13.67 8.039-28.45 18.572-43.17 24.249-3.07-4.285-142.71-85.14-153.76-89.331.56-.904.65-.945 1-2.134 1.95-6.581.5-50.873.51-60.592 0-34.773 1.67-70.345-.08-105.036-.1-1.89-.56-3.132-1.33-4.826.32-.118.65-.233.98-.356 9.16-3.457 130.15-74.9 132.14-79.51z"/>
  <path fill="#ACABAB" d="M1922.84 0h123.41c2.92 5.178 3.05 39.852 1.17 46.169-.2.658-.57 1.356-.87 1.958 2.11 4.556 2.29 12.436.48 17.102-.09.249-.23.482-.34.723-2.82-3.67-96.01-57.738-105.59-61.137-4.59 5.95-129.2 79.293-138.29 82.459 2.27 6.206 2.31 151.12.19 156.308-.09.234-.23.45-.34.674 11.85 5.17 135.62 76.811 140.19 82.12 11.01-3.993 98.71-54.936 103.76-60.37 1.93 4.639 2.21 11.584.4 16.31-.1.257-.23.499-.35.748-19.97 11.611-40.2 22.757-60.11 34.472-13.67 8.039-28.45 18.572-43.17 24.249-3.07-4.285-142.71-85.14-153.76-89.331.56-.904.65-.945 1-2.134 1.95-6.581.5-50.873.51-60.592 0-34.773 1.67-70.345-.08-105.036-.1-1.89-.56-3.132-1.33-4.826.32-.118.65-.233.98-.356 9.16-3.457 130.15-74.9 132.14-79.51z"/>
  <path fill="#FCFAFA" d="M1960.88 0h85.37c2.92 5.178 3.05 39.852 1.17 46.169-.2.658-.57 1.356-.87 1.958-29.54-12.693-57.98-31.838-85.67-48.127z"/>
  <path fill="#ACABAB" d="M0 933.001a1577.79 1577.79 0 0152.404 31.565c17.248 11.036 33.985 22.842 51.822 32.938l-.109 196.816c19.099 11.42 37.511 24.06 56.121 36.26l63.153 40.97c15.295 10.06 30.618 21.71 46.599 30.55 13.512-21.46 26.501-43.88 41.963-63.98-18.831-22.44-36.896-47.36-53.037-71.82l-83.743.38a4236.42 4236.42 0 00-49.939-79.44 3636.82 3636.82 0 0135.171-56.11c5.399-8.41 10.55-17.38 16.592-25.34a7182.26 7182.26 0 0095.91.02 3686.34 3686.34 0 0130.177 48.73c6.445 10.39 13.45 20.53 19.245 31.3a1698.99 1698.99 0 00-48.443 77.92c16.67 24.57 34.987 47.94 52.176 72.14 27.836-.07 55.793.31 83.603-.91 16.069 28.25 34.775 55.03 51.094 83.16-11.571 17-22.248 34.62-33.168 52.04-5.576 8.9-10.92 18.51-17.503 26.69a3028.39 3028.39 0 00-98.289-.18c-13.918-23-29.037-45.26-42.961-68.24-2.532-4.18-2.646-10.34-5.444-13.97-6.192-8.02-93.122-61.67-109.416-72.3-16.347-10.66-32.602-23.02-49.543-32.61l-.241 48.43C69.91 1279.23 34.378 1298.28 0 1319.26V933.001z"/>
  <path fill="#FCFAFA" d="M184.767 1017.39a5072.49 5072.49 0 0179.469-.07c14.536 22.02 29.751 45.3 41.813 68.74-14.1 22.86-28.098 45.95-43.219 68.15-26.595.51-53.287.02-79.892 0-14.512-22.04-27.621-45-42.14-67.06 13.94-23.44 28.927-46.99 43.969-69.76zm136.12 229.63c26.783-.25 53.598.07 80.383.11 15.478 22.55 29.897 46.96 43.486 70.71-14.699 21.71-27.324 44.8-42.335 66.31l-82.692.15a2358.81 2358.81 0 01-41.949-67.59c13.304-23.93 29.546-45.94 43.107-69.69zM0 950.099C31.245 965.57 62.577 985.794 91.009 1006l-.055 243.49c-29.941 17.86-59.61 37-90.954 52.3V950.099z"/>
  <path fill="#B11A1A" d="M836.121 84.25c12.542-1 25.28-3.587 37.743-5.417l58.558-8.27c14.898 28.96 28.87 58.494 43.248 87.723 15.427-.545 30.91-.32 46.34-.336 4.73-12.633 11.72-24.735 17.97-36.689l25.74-49.746a1893.23 1893.23 0 0194.66 16.844c1.16 31.593 3.61 63.158 5.13 94.741 16.26 3.024 32.15 8.134 47.96 12.898 22.81-22.861 45.01-46.557 68.31-68.875l90.96 44.764c-5.25 12.37-8.57 25.877-12.4 38.754-4.73 15.94-9.78 31.777-14.26 47.793a1279.78 1279.78 0 0139.59 22.816c12.27-8.112 25.12-15.574 37.59-23.384 5.09-2.883 10.42-5.617 15.15-9.053 2.55-1.492 4.39-3.414 7.45-2.407 5.81 1.908 11.66 9.157 16.3 13.119 3.87 3.41 7.86 7.684 12.06 10.589l37.49 33.376a4332 4332 0 00-33.12 63.735c59.92 55.884 115.46 135.459 143.91 212.542 3.65 9.879 10.04 23.35 10.55 33.833.09 1.82.08 2.754-1.23 4.102-2.27 2.349-6.71 2.528-9.76 2.428-4.63-.152-9-.756-13.65-.422l3.14-.784c.68-2.079.15-3.629-.7-5.669-1.7-4.046-4.23-7.473-8.22-9.079l1.66-2.347c-2.23-13.024-11.05-27.168-16.83-38.988-37.67-77.015-74.97-124.437-133.74-185.355-1.37-11.577-4.9-21.057-14.31-28.533-8.83-7.011-20.74-6.359-30.11-13.038-25.66-18.274-51.21-36.617-78.64-52.28-80.51-45.957-180.69-79.852-272.98-89.635a666.814 666.814 0 00-148.333 2.184 595.8 595.8 0 00-400.241 230.891c-14.9 19.277-28.081 40.302-40.389 61.321-58.727 100.288-87.417 213.803-72.26 329.831a521.2 521.2 0 0024.223 104.892c21.035 61.135 75.218 162.661 116.318 212.171 25.406 30.59 56.661 58.17 88.243 82.34 10.442 7.99 21.412 15.53 33.026 21.73l-2.707 3.39c.647 3.27 1.688 5.14 4.532 7.02 3.537 2.33 6.683 3.39 10.907 3.05 2.928 2.85 4.093 4.75 4.283 8.88.011.23-.008.47-.012.7l1.197 1.18c-12.216 2.18-24.519 3.45-36.849 4.77-11.183-9.87-23.336-18.7-35.546-27.25-26.239 12.7-51.889 26.95-77.7 40.51-23.3-23.24-47.835-45.85-72.274-67.9 4.355-8.86 10.233-17.36 15.338-25.84 10.046-16.68 19.884-33.29 28.844-50.59-10.84-13.04-20.569-26.94-31.65-39.82-30.121 8.09-61.002 14.45-91.373 21.66l-47.779-74.54c25.621-23.79 50.59-48.419 76.566-71.785-5.959-13.481-11.38-27.005-15.796-41.076-11.85-.883-23.844-.768-35.722-1.295a1715.78 1715.78 0 01-68.836-4.517c-6.661-29.996-10.36-60.238-14.023-90.703l90.701-43.157c-.569-14.389-.472-28.823-.574-43.222-30.266-15.529-62.875-28.168-94.195-41.515 2.176-30.24 9.042-61.549 15.074-91.245 35.367-1.475 70.716-5.497 105.893-9.296 3.914-15.778 8.898-31.422 13.418-47.044-26.684-21.163-51.807-44.109-78.394-65.34a5182.7 5182.7 0 0044.373-82.775c32.675 7.324 66.513 10.322 99.399 16.946 10.531-13.038 21.109-25.943 32.74-38.025-16.195-27.815-33.799-54.976-50.782-82.324 22.885-23.321 46.811-45.65 70.096-68.571 29.215 13.973 56.808 31.319 85.718 45.923 13.172-9.61 26.657-19.064 40.766-27.251a7536.03 7536.03 0 01-21.205-94.448c30.87-13.53 61.037-28.673 92.053-41.888 22.6 23.673 43.351 49.2 66.322 72.492 12.926-5.554 26.592-9.265 40.146-12.92l14.905-97.293z"/>
  <path fill="#000" d="M876.896 1536c13.357-27.27 87.262-179.38 106.216-189.45 8.348-4.44 19.718-46.74 22.998-57.76 10.37-34.83 15.68-69.52 18.76-105.65 1.54-18 .5-37.11 4.96-54.62 11.85-46.46 58.64-87.25 99.76-109.56 38.49-20.886 86.76-33.065 130.35-35.81 17.55-1.105 38.07 1.028 54.76-4.741 11.66-4.028 21.96-12.596 25.54-24.673 3.69-12.424.57-25.732 1.7-38.44 3.72-41.897 29.19-81.768 65.93-102.177a129.277 129.277 0 0121.96-9.578c11.18-3.737 25.33-5.226 34.21-13.568 10.32-9.697 11.77-26.59 18-38.866 27.1-53.4 81.37-90.97 142.37-89.147 3.22 3.844 9.25 22.66 11.77 28.73 11.83 28.533 54.17 121.12 52.2 146.595-1.09 14.131-12.4 33.828-23.35 42.529-.75.599-.72.553-1.4.977 3.6 4.973 5.6 10.811 8.3 16.288 3.93 7.97 8.18 15.706 13.19 23.056a2860.9 2860.9 0 0054.49 77.148c9.31 12.897 20.69 25.787 28.04 39.857 1.83 3.49.8 8.41-.36 12-4.75 14.66-19.59 23.84-32.72 30.04-8.54 4.04-34.22 6.03-37.52 15.09-2.63 7.24 1.53 18.68 5.03 25.03 5.08 9.22 17.94 20.58 14.42 31.88-3.14 10.1-14.68 18.46-23.78 22.81-2.88 1.37-5.83 2.28-8.9 3.09 7.09 3.09 13.5 8.3 16.46 15.63 2.3 5.68 1.95 12.1-.56 17.65-8.47 18.78-37.9 19.3-28.18 47.66 6.56 19.16 14.77 39.44 5.46 59.41-6.16 13.21-18.99 21.35-32.3 26.1-75.34 26.94-243.4-30.96-314.27-65.1-39.81-19.17-67.63-39.1-95.12-73.71-.87-1.09-.56-.73-1.97-1.5l-.5 1.17 1.68-1.19-.73-.11.06.98c.04 1.35.11.82-.31 2.04 49.86 74.83 139.65 108.97 224.23 125.92a971.923 971.923 0 0011.43 2.21c-17.41 6.32-25.69 17.87-33.38 34.31-16.72 35.73-26.5 74.61-41.56 111.07 16.78 18.68 34.33 37.03 50.31 56.38H876.896z"/>
  <path fill="#000" d="M456.938 544.93c40.425-96.18 118.79-181.75 204.453-239.941a585.246 585.246 0 01337.104-103.188c31.065.189 62.735 2.3 93.265 8.167 18.69 3.592 47.85 9.674 59.01 26.132 53.96 8.746 107.85 29.731 156.43 54.273 1.75-.919 3.5-1.634 5.4-2.219 5.88-1.805 12.28-1.38 17.65 1.75 5.25 3.058 8.86 8.312 10.29 14.171 1.39 5.703.47 12.063-2.69 17.036-2.93 4.609-7.54 7.591-12.87 8.679-5.69 1.163-12.87.737-17.7-2.729-5.87-4.209-8.13-11.097-9.42-17.837-118.98-55.746-249.19-78.858-379.309-54.502-138.336 25.894-276.318 101.973-356.745 219.938-6.332 9.287-36.723 53.203-34.904 62.835 9.957 5.874 96.476-3.311 110.659 3.099.205.093.403.2.604.3 5.895-2.124 10.074-9.088 13.044-14.221 13.254-22.904 30.113-40.209 49.598-57.928 93.097-84.653 220.527-124.137 345.163-118.234a495.24 495.24 0 01338.86 159.922c2.6 2.89 5.14 5.893 7.83 8.692-5.7.875-7.04.733-10.99-3.449-5.78-6.13-11.04-12.762-17.03-18.694-56.09-55.596-123.7-94.946-198.93-118.518-154.99-48.566-331.54-17.993-455.208 89.545-12.984 11.291-25.982 23.831-37.323 36.8-11.382 13.016-16.888 32.615-32.403 40.723 5.125 7.267 10.84 14.968 17.015 21.356 3.34-3.497 6.983-6.648 10.603-9.848l571.836-.015c22.65 19.721 43.14 42.31 64.87 63.087a6337.94 6337.94 0 0177.49 74.822c16.37 15.842 33.16 31.363 48.99 47.751l5.45-12.304a6134.23 6134.23 0 00-85.08-82.128l-106.38-103.219-573.027.064-.338-.527c-1.313.12-.861.046-2.035.264l-.759.149c-1.127-1.955-1.701-2.639-1.511-4.973 1.278-15.675 54.817-64.857 68.62-75.979 92.841-74.808 219.114-106.245 336.69-93.267 118.89 13.124 236.16 73.036 311.24 166.968.19-.156.38-.315.58-.469l.98-.764c1-.794 1.98-1.607 3.04-2.33 5.48-3.756 12.99-4.676 19.38-3.101a22.888 22.888 0 0114.36 10.742c3.84 6.556 4.02 12.437 2.31 19.562 24.73 18.511 47.08 40.385 70.73 60.27-13.16-20.74-26.73-40.771-44.06-58.321-8.28-8.393-17.56-15.663-25.82-24.089 23.49 13.967 42.6 36.042 58.21 58.212 11.16 15.859 19.6 30.477 35.6 42.221 19.69-10.412 39.64-19.417 61.25-25.013-1.64-7.984-97.26-105.855-110.8-119.664l7.53-.121a6336.25 6336.25 0 0060.46 63.334c14.17 14.53 30.26 29.261 42.67 45.243 1.34 1.715 1.81 3.069 2.12 5.189 1.41-12.551-45.19-72.802-55.16-85.278-18.64-23.324-38.41-45.466-57.85-68.1-14.77-17.195-29.05-35.01-44.62-51.486-8.92.822-17.97.992-25.26-5.189-4.98-4.221-8.67-11.04-9.17-17.559-.5-6.481 2.08-12.827 6.53-17.495 4.84-5.08 11.44-7.792 18.44-7.883 6.78-.088 13.87 2.117 18.7 7.028 4.86 4.946 7.05 12.37 6.79 19.182-.11 2.758-.45 5.503-.84 8.233 52.94 59.206 112.58 119.343 145.29 192.727 1.5 3.365 7.57 20.098 10.49 20.964 1.6.476 4.56.288 6.3.398 3.99 1.606 6.52 5.033 8.22 9.079.85 2.04 1.38 3.59.7 5.669l-3.14.784c-20.85 1.593-39.48 5.165-58.9 13.264-54.57 22.757-93.95 68.703-116.25 122.646-29.18 9.25-55.55 22.712-78.05 43.748-41.06 38.379-56.18 85.016-57.92 139.927-20.64 4.562-48.7 4.509-70.51 7.323-67.2 8.672-136.84 36.016-184.83 84.984-40.27 1.65-81.018.5-121.33.4l-198.669.19c-63.82-67.469-108.216-148.114-120.177-240.982-9.536-74.041 5.033-159.672 51.486-219.804-6.874-8.689-13.611-17.388-19.939-26.485-36.419.009-72.952-.523-109.353.452-2.072-3.222-4.15-5.987-6.73-8.834 17.372-31.6 35.776-62.647 58.205-90.982 59.247-74.844 145.635-133.053 234.481-166.914a604.383 604.383 0 01388.116-13.989c34.49 10.23 67.59 23.75 100.38 38.447l4.46-8.213c-10.74-6.183-22.27-11.378-33.68-16.208-150.57-63.751-331.929-66.028-483.563-4.411-123.114 50.028-234.147 147.03-286.46 270.651l-42.239.012z"/>
  <path fill="#FCFAFA" d="M1314.05 293.06c2.36-.138 4.88-.36 7.23-.014 4.72.694 9.4 3.757 12.03 7.712 2.43 3.644 3.16 7.939 2.05 12.176-1.49 5.668-5.38 8.74-10.09 11.649-2.64.319-5.19.59-7.82.081-4.51-.873-8.68-3.399-11.14-7.332a16.287 16.287 0 01-2-12.732c1.41-5.689 5.03-8.618 9.74-11.54z"/>
  <path fill="#000" d="M1316.72 301.618c2.57.241 5.31.68 7.37 2.387 1.85 1.531 2.57 3.529 2.54 5.89-.04 3.054-2.57 5.472-4.47 7.59-2.69-.123-5.39-.328-7.49-2.228-1.87-1.681-2.67-3.687-2.55-6.181.16-3.162 2.5-5.375 4.6-7.458z"/>
  <path fill="#FCFAFA" d="M1397.07 536.08c3.25-.206 6.66-.301 9.86.416 4.81 1.077 9.38 4.764 11.68 9.076 2.27 4.228 2.55 9.156 1 13.668-2.23 6.483-6.83 9.523-12.67 12.324-3.07.152-6.45-.02-9.43-.899a20.439 20.439 0 01-12.07-9.811c-2.14-4.028-2.62-8.913-1.07-13.226 2.3-6.418 6.86-8.982 12.7-11.548z"/>
  <path fill="#000" d="M1397.96 545.735c3.62-.159 7.36.197 10.19 2.743 1.96 1.766 2.84 3.815 2.8 6.449-.06 3.094-2.66 5.174-4.75 7.093l-.78.064c-3.64.268-8.01.395-10.77-2.463-1.62-1.668-2.07-3.245-1.99-5.484.14-3.751 2.75-5.975 5.3-8.402z"/>
  <path fill="#FCFAFA" d="M1412.17 361.156c3.8-.103 7.41.056 11.02 1.396a19.737 19.737 0 0111.21 10.774 17.944 17.944 0 01-.02 13.878c-2.61 6.3-7.43 9.116-13.38 11.628-4.06.042-7.8.044-11.64-1.562-5.07-2.122-9.26-6.086-11.2-11.276a17.68 17.68 0 01.5-13.704c2.75-6.065 7.62-8.83 13.51-11.134zm9.64 205.49c8.23 3.57 19.34 15.178 26.47 21.464 21.19 18.703 42.21 39.971 65.78 55.61l-7.42 5.431c-1.37.999-2.54 1.441-4.16 1.941-9.41-5.759-18.3-15.793-26.6-23.251-20.09-18.068-40.89-35.83-59.82-55.123l5.75-6.072zm14.63-171.774c31.23 31.77 60.79 66.539 88.4 101.473 9.19 11.621 54.89 74.259 53.41 87.036l-2.64-1.834c-2.83-19.431-122.99-155.577-145.17-180.812l6-5.863zM959.338 208.411c13.533-1.762 28.693-1.029 42.322-.777 45.3.837 99.54 2.865 139.6 26.309-65.87-9.204-130.41-12.984-196.818-5.94a574.86 574.86 0 00-389.713 210.983c-13.278 17.146-25.797 34.8-36.52 53.676-8.583 15.11-15.873 30.911-24.562 45.973-8.894.04-17.813-.243-26.707-.384 16.93-41.382 50.198-88.856 79.583-122.052 106.998-120.874 250.365-197.776 412.815-207.788z"/>
  <path fill="#FCFAFA" d="M1012.29 373.42c24.78-1.606 51.74 1.312 76.27 4.993 108.32 16.255 225.56 74.694 291.72 164.066-1.56 5.126-2.55 10.314-1.81 15.67.78 5.663 3.38 10.451 8.14 13.721 7.38 5.072 15.61 6.259 24.23 4.462 28.64 26.891 58.74 52.168 87.31 79.08-24.05 20.369-41.6 42.332-58.23 69.018-45.72-45.223-92.61-89.466-138.94-134.091-17.64-16.928-34.7-34.64-52.85-51.011-64.27-1.924-129.06-.323-193.39-.322l-380.837.248c5.953-10.833 15.487-21.231 23.85-30.279 82.508-89.267 194.805-130.736 314.537-135.555z"/>
  <path fill="#CF9E20" d="M998.142 392.43c34.558-2.342 70.338.573 104.318 6.946a447.245 447.245 0 01229.13 115.975c8.75 8.369 20.98 17.79 27.74 27.658.11 3.337.23 6.686.51 10.012 1 11.568 4.84 22.531 14.1 30.005 8.27 6.683 18.47 9.366 28.93 8.172 22.66 22.203 46.88 43.294 70.16 64.887-11.77 14.002-22.49 29.293-33.19 44.128-41.75-42.227-84.18-83.533-126.78-124.899l-21.22-20.747c-11.1-10.83-24.44-27.566-39.8-31.433-13.98-3.517-38.26-1.403-53.47-1.404l-99.42-.022a38423.6 38423.6 0 00-388.802-.141c10.148-11.098 20.304-22.109 31.656-32.001 70.659-61.57 163.584-92.155 256.138-97.136z"/>
  <path fill="#FCFAFA" d="M669.691 563.147c65.772-1.268 131.769-.173 197.562-.188l370.847.14c32.12 32.866 65.93 64.483 99.14 96.242l92.17 89.47c-32.12 14.263-56.89 23.899-82.61 49.044-37.9 37.064-55.44 83.842-56.05 136.318-6.15.611-12.34 1.012-18.51 1.507-75.22 5.105-142.5 20.728-205.05 64.77-10.54 7.43-19.5 17.03-29.82 24.82-46.264 1.42-92.657.87-138.939.76l-173.858-.02a178.131 178.131 0 01-3.453-3.54c-73.093-77.4-119.486-178.973-115.983-286.595 1.868-57.404 21.344-132.34 64.554-172.728z"/>
  <path fill="#B11A1A" d="M791.294 603.437c33.871-2.086 71.799.009 103.944 11.74 35.015 12.778 61.096 35.546 76.672 69.626 18.607 40.712 19.919 95.023 4.223 136.723-14.473 38.449-39.929 65.548-77.334 82.499-56.445 23.333-120.432 18.106-180.105 17.618l-.132-312.321c24.289-2.53 48.331-4.761 72.732-5.885z"/>
  <path fill="#FCFAFA" d="M808.584 639.445c18.089-.614 37.679.632 55.217 5.39 25.475 6.911 45.922 22.165 59.016 45.191 18.196 31.996 18.187 81.079 8.291 116.067-8.201 28.997-26.143 48.99-52.127 63.523-34.03 17.788-75.817 16.443-113.143 16.11l-.03-243.479a778.874 778.874 0 0142.776-2.802z"/>
  <path fill="#B11A1A" d="M1094.53 603.438c31.99-2.065 68.01-.074 98.6 10.28 35.67 12.076 65.49 34.33 82.4 68.674a176.469 176.469 0 017.76 134.199c-13.76 39.929-42.22 69.933-79.92 88.208-46.07 23.847-129.01 17.994-180.18 16.133a19520 19520 0 00-.18-312.529 1118.75 1118.75 0 0171.52-4.965z"/>
  <path fill="#FCFAFA" d="M1094.62 641.42c14.18-1.798 30.65-1.006 44.92.109 30.83 2.409 59.4 12.316 79.88 36.554 22.77 26.945 25.97 62.148 23.26 95.955-2.93 36.428-16.62 64.343-44.51 88.09-35.41 28.236-86.79 24.583-129.28 23.376 0-80.594-2.02-161.699.95-242.226 8.26-.369 16.53-1.202 24.78-1.858z"/>
</svg>
