<svg version="1.1" xmlns="http://www.w3.org/2000/svg" viewBox="0 0 2048 1536" display="block">
  <path fill="#314150" d="M0 0h2046.25c3.25 5.686 1.75 17.701 1.75 24.337l.02 1191.133-.02 239.4c0 11.49 1.75 71.94-.62 78.94-.26.76-.74 1.51-1.13 2.19H0V0z"/>
  <path fill="#42586A" d="M1749.63 1151.82c23.89-2.04 49.23-.49 73.26-.57l145.03-.26c-.29.17-.57.35-.87.51-9.75 5.22-59.37-6.78-65.44 5.51 1.61 5.73 21.04 14.65 26.58 17.76 6.12 3.44 35.46 18.34 38.25 21.74-1.16 8.24-29.16 76.44-33.37 80.45-.14.14-.27.28-.41.41-7.46-5.73-55.72-20.88-66.92-23.56-2.92 14.22-34.48 51.64-46.55 60-.94.66-1.88 1.17-2.94 1.62 4.61 3.87 34.4 53.44 35.25 58.41.05.31.03.62.05.93-1.84 3.12-64.03 46.52-70.15 48.69-1.52-4.69-43-54.78-46.93-57.39-22.36 11.32-47.55 19.94-72.51 22.91.62 1.33.99 2.27.98 3.77-.03 7.49-6.12 60.44-8.57 66.11-.53 1.22-.6 1.21-1.29 2.1-28.63-2.07-58.1.22-86.86.05 2.34-5.34-2.31-63.54-4.74-70.16-.21-.58-.76-1.47-1.03-1.95-7.11-1.7-14.44-2.29-21.56-4-18.06-4.35-36.73-11.24-53.47-19.29a1295.97 1295.97 0 00-41.77 59c-24.81-15.63-49.72-32.52-75.73-46.09 10.03-22.29 26.85-41.58 37.66-63.52-19.35-14.62-37.86-38.59-50.12-59.47-23.01 7.81-46.33 15.45-69.53 22.7-11.77-27.19-21.78-55.12-33.37-82.4 22.79-8.13 44.87-19.07 66.83-29.21-.67-4.87-1.64-9.89-1.47-14.81l69.72.13 248.34-.04 75.36-.23c12.43-.05 25.97-1.14 38.29.15z"/>
  <path fill="#314150" d="M1387.64 1151.94l248.34-.04 75.36-.23c12.43-.05 25.97-1.14 38.29.15 9.5 1.35 19.94.6 29.56.6l53.76-.05c.02.09.05.17.07.26 2.35 15.91-26.63 65-36.77 78.84-37.58 51.29-91.85 82.25-154.35 91.73-62.06 9.4-123.65-7.03-173.8-44.17-39.26-29.07-73.12-78.28-80.46-127.09z"/>
  <path fill="#FCFAFA" d="M415.376 495.169c-14.704-5.038-26.902-12.351-33.841-26.888-5.464-11.447-5.969-25.991-1.479-37.852 6.814-18 26.38-43.382 38.216-59.752 85.893-118.791 214.737-218.441 348.867-276.794a851.658 851.658 0 01663.891-10.445 924.767 924.767 0 01504.91 498.592 912.102 912.102 0 0167.77 484.48c-3.16 22.11-7.7 60.91-15.11 80.42-.61 1.6-1.6 3.01-2.74 4.27-4.81.09-9.94.65-14.56-.9l-1.92-2.41c-.37 1.45-.51 1.87-1.46 3.1l-145.03.26c-24.03.08-49.37-1.47-73.26.57-12.32-1.29-25.86-.2-38.29-.15l-75.36.23-248.34.04-69.72-.13-453.803 1.04c26.204-39.91 55.161-78.06 81.614-117.81-16.505.57-33.112 0-49.625-.19-16.292 27.02-34.627 53.19-51.963 79.58a8661.42 8661.42 0 01-126.007 186.94 7214.75 7214.75 0 00-50.418 73.86c-12.747 18.97-25.141 39.26-40.019 56.6 16.077-33.54 35.746-65.93 54.221-98.22 34.608-60.5 70.139-120.54 103.912-181.5l-284.479.58c-1.455 3.06-3.417 5.87-5.243 8.72 10.719 9.13 20.729 19.51 30.918 29.25 12.166 11.63 26.714 23.42 36.361 37.2 3.774 5.39 6.648 11.28 7.258 17.91.618 6.71-1.387 11.97-4.571 17.69-5.926 10.65-13.651 20.57-20.689 30.51-12.837 18.14-25.971 36.26-37.916 55-5.904 9.27-11.987 18.97-16.82 28.83-2.907 5.93-4.934 13.75-8.736 19.04-1.819 2.53-5.034 2.08-7.167 4.69.766 8.93 11.065 12.24 16.997 17.51 2.643 2.35 4.452 5.43 4.428 9.04-.024 3.76-1.75 7.95-4.536 10.5-5.351 4.89-13.517 5.41-20.409 4.89-18.406-1.4-25.722-5.13-37.012-19.39-2.197-2.78-4.429-6-7.352-8.05-6.08-4.26-15.331-5.43-20.043-11.4-1.229-1.56-1.859-3.38-1.586-5.37 1.185-8.6 13.422-19.43 19.906-24.6l-4.554-7.61c10.125-17.42 21.529-34.19 31.861-51.51 12.91-21.64 24.745-43.97 36.831-66.08-17.454-8.07-33.924-20.06-50.079-30.49-16.447 16.78-27.678 39.73-45.409 54.77-9.234 7.84-20.768 13.41-30.795 20.26-15.779 10.78-31.065 22.49-46.359 33.95-12.859 9.63-26.495 19.23-38.281 30.16-2.863 22.37-9.983 43.11-15.239 64.87-1.74 7.2-1.715 15.29-4.485 22.18-1.33 3.31-3.368 5.9-6.714 7.29-2.563 1.07-3.791.68-6.266-.31-2.032-.82-3.854-1.43-5.982-1.94-6.783 5.69-2.095 31.92-13.461 43.52-2.806 2.86-6.311 4.2-10.309 3.99-6.154-.32-14.956-3.7-18.818-8.58-7.453-9.43-3.937-25.9-2.508-36.91-9.779-.32-17.288-1.54-25.313-7.43-15.04 2.51-29.783 5.13-43.177 12.83 2.811 5.44 4.432 10.93 4.868 17.03.45 6.31-1.183 12.89-5.55 17.61-4.414 4.77-10.436 6.64-16.8 6.65-9.376.01-21.423-2.73-28.05-9.79-4.988-5.32-4.776-10.53-4.572-17.34-6.244-5.62-13.654-10.32-17.578-18.01-1.891-3.7-2.477-7.78-1.095-11.76 3.583-10.3 18.375-16.37 27.326-21.01-1.984-1.98-4.007-4.2-5.577-6.54-5.419-8.04-6.333-18.46-4.434-27.76 5.137-25.15 27.613-48.74 48.52-62.45-5.52-3.68-9.572-8.31-11.179-14.9-2.326-9.54 1.514-19.03 6.367-27.11 9.707-16.15 26.145-32.61 45.026-37.12 14.659-3.5 33.652.31 47.842 4.76 4.437 1.39 8.819 3.68 13.357 4.65 9.269 1.97 10.174-.93 19.856 5.07 12.436 7.71 16.913 21.3 20.081 34.81 12.518-16.41 29.891-32.52 47.392-43.52 7.9-4.97 17.97-8.37 24.455-15.17 11.507-12.07 31.426-56.08 39.275-72.99-6.945-42.24 18.241-50.19 39.519-79.25 9.813-13.4 17.003-31.09 23.672-46.31-4.87.97-9.835 1.49-14.676 2.63-3.84.91-7.308 2.36-10.418 4.81-10.457 8.27-33.984 40.05-41.292 52.09.783 3.56 1.83 7.37 2.053 11.01.287 4.69-1.177 10.73-4.598 14.15-1.575 1.57-3.577 2.38-5.807 2.29-5.955-.26-9.817-4.91-13.346-9.08-.848 3.22-1.668 6.61-3.175 9.6-1.93 3.82-5.637 8.49-9.907 9.65-2.623.71-5.139.03-7.396-1.38-6.081-3.79-9.57-11.35-10.827-18.2-5.522-30.08 19.405-62.37 35.467-85.87-6.534-5.82-14.18-10.73-20.985-16.31 15.535-18.397 30.279-37.5 46.145-55.606-19.393-16.427-34.003-39.256-48.519-59.871-22.551 7.201-46.077 13.465-67.996 22.353-10.577-24.299-19.712-49.658-29.04-74.464 22.179-8.542 44.401-19.21 65.875-29.411-5.486-25.747-8.026-50.876-7.745-77.203-23.164-5.131-46.219-12.23-69.2-18.22 6.471-25.927 11.055-52.382 16.899-78.473a4481.95 4481.95 0 0168.808 9.146c5.551-25.461 17.931-50.209 33.334-71.083-19.46-14.028-37.385-31.17-55.609-46.788 16.811-21.651 32.018-44.588 48.467-66.542 22.222 13.329 43.814 28.169 65.143 42.891 5.091-4.531 10.468-8.943 14.916-14.12z"/>
  <path fill="#000" d="M415.376 495.169c-14.704-5.038-26.902-12.351-33.841-26.888-5.464-11.447-5.969-25.991-1.479-37.852 6.814-18 26.38-43.382 38.216-59.752 85.893-118.791 214.737-218.441 348.867-276.794a851.658 851.658 0 01663.891-10.445 924.767 924.767 0 01504.91 498.592 912.102 912.102 0 0167.77 484.48c-3.16 22.11-7.7 60.91-15.11 80.42-.61 1.6-1.6 3.01-2.74 4.27-4.81.09-9.94.65-14.56-.9l-1.92-2.41c4.78-7.58 6.37-21.57 8.25-30.41a848.948 848.948 0 0015.88-210.853 928.593 928.593 0 00-301.92-640.962 862.791 862.791 0 00-627.08-226.177 852.755 852.755 0 00-585.221 282.098c-23.209 25.653-71.5 84.338-83.538 114.273-1.95 4.85-2.965 9.968-2.635 15.203.488 7.757 3.329 15.343 9.427 20.433 8.925 7.451 24.053 10.835 34.942 6.128 3.385-1.463 6.469-4.138 9.406-6.352 118.239-89.14 254.746-146.654 403.719-155.786 198.88-12.191 386.88 44.819 537.28 178.215a679.548 679.548 0 01227.3 463.907c.98 16.384 2.99 132.233-6.93 141.633-1.76 1.67-3.76 2.3-6.15 1.86-4.36-.8-7.47-5.65-8.14-9.73-.54-3.32 3.84-42.95 4.21-50.19a787.892 787.892 0 00-.97-91.989c-9.83-130.354-56.16-245.107-134.05-349.291-106.5-142.427-274.77-236.621-449.89-261.692a739.073 739.073 0 00-473.424 90.186c-27.876 16.17-53.698 34.593-79.453 53.863-14.245 10.658-25.662 15.839-43.871 13.091l-1.146-.179z"/>
  <path fill="#B11A1A" d="M1334.46 533.567c.31.296.63.586.94.887 5.82 5.728 10.64 15.32 14.6 22.497 27.53 49.881 34.42 106.927 35.69 163.13 2.01 89.193-7.54 184.717-72.2 252.118-21.56 22.477-46.85 38.371-76.03 49.161-64.58 23.88-126.5 17.3-193.69 18.6-.17-14.67-3.28-93.362.51-101.47 17.1-22.147 33.26-45.048 49.96-67.5 18.85-25.337 38.3-50.373 56.11-76.455-.5 19.515.33 39.066.52 58.586l.17 85.982c16.84-.471 33.6-1.647 49.48-7.871 24.43-9.581 40.35-31.021 50.42-54.505 22.59-52.676 23.53-122.178 17.48-178.265-2-18.472-4.45-37.351-11.38-54.704a3643.39 3643.39 0 0077.42-110.191z"/>
  <path fill="#CF9E20" d="M1041.81 443.33c15.09-1.713 30.16-3.855 45.32-4.772 71.21-4.307 146.23 6.085 203.55 51.773 8.23 6.563 16.75 13.409 24.09 20.98-20.57 27.589-39.27 56.63-58.81 84.948l-110.17 158.584a10481.6 10481.6 0 01-104.13 143.656 6732.2 6732.2 0 00-95.929 136.541c-16.505.57-33.112 0-49.625-.19 16.015-25.12 30.051-51.325 45.346-76.862l84.828-139.584c26.12-42.944 52.82-85.396 77.82-129.02 13.03-22.744 26.88-46.016 36.75-70.314-18.66 24.668-37.15 49.357-56.37 73.596-14.35 18.09-29.69 35.691-43.05 54.521 1.31-46.708.65-93.602.58-140.333l-.2-163.524z"/>
  <path fill="#000" d="M473.033 921.661c3.884-1.8 19.457-6.707 21.067-8.974a80.6 80.6 0 01-3.809-2.908c6.256-4.442 15.258-7.295 22.741-8.819 7.744-1.577 26.37-3.263 33.049 1.452 5.212 3.679 12.546 3.359 18.569 5.687l.135 1.162c-1.874.5-3.302.919-4.986 1.928 1.937 1.07 4.106 2.46 5.5 4.195 1.439 1.789 2.316 4.87 1.95 7.158-1.295 8.089-1.226 15.307-.874 23.454 12.669 11.354-2.32 16.748.838 31.388.43-.378.867-.746 1.293-1.128.283-.254.556-.519.837-.775 3.197-2.907 5.98-4.679 10.454-4.309 9.687.801 22.913 11.97 29.039 19.245-1.538 26.043-17.156 77.743-29.587 100.103-1.789 3.22-3.987 7.07-7.795 7.99-12.274 2.99-29.738-8.84-40.02-14.7-14.715 26.81-30.288 53.61-47.164 79.12a5924.08 5924.08 0 0146.465 44.18c8.297 8.04 17.482 16.11 24.551 25.26 4.002 5.18 6.759 9.91 5.696 16.71-2.632 16.86-49.257 75.27-61.272 94.35-9.537 15.14-16.954 31.5-26.473 46.52-.479.76-.939 1.35-1.696 1.85-.285.19-.584.35-.876.53l.251.31c-2.886-.89-7.404-2.99-10.351-2.37-8.87 12.13 23.802 29.92 25.345 40.61-1.389 1.68-3.304 2.04-5.313 2.59-24.445 6.73-31.191-9.42-46.484-22.27-5.417-4.55-13.275-7.76-19.449-11.27 6-9.59 12.607-15.33 22.38-20.96a1891.98 1891.98 0 0017.21 8.07c-7.874-6.65-16.3-12.1-23.408-19.69 12.243-18.57 24.545-37.26 35.545-56.61 11.798-20.75 22.405-42.72 35.987-62.37-20.825-15.38-44.183-27.78-65.827-42.1-14.189 16.95-31.724 44.88-47.218 58.38-9.421 8.21-21.171 14.74-31.524 21.78-26.496 18.04-69.259 46.74-90.237 69.88.868 15.54-3.91 30.13-8.078 44.94-2.459 8.69-5.165 17.47-6.983 26.32l-3.271 17.05c-5.769-1.16-11.397-2.7-17.063-4.29-5.971 13.22-3.128 22.98-6.917 35.57-1.274 4.23-3.437 9.52-7.7 11.48-2.457 1.13-5.136.74-7.533-.34-4.138-1.87-7.108-4.85-8.405-9.23-5.254-17.71 12.252-41.9 18.939-57.37 1.61-3.73.66-7.89 1.533-11.76 1.645-7.3 7.951-16.07 11.649-22.79-11.118-6.01-21.003-10.99-29.671-20.39-8.282 4.08-17.554 7.68-26.365 10.43 3.105 3.01 4.284 6.14 6.9 9.13.928 1.06 18.29.31 21.603.62-6.3.84-12.719 2.02-18.773 3.97 9 .97 20.343-2.55 28.763-.18 2.168.61 2.242 1.01 3.22 2.88-1.239 4.12-3.495 7.8-4.958 11.85-4.733 13.1-8.364 30.46-17.218 41.41-2.298 2.84-4.397 4.45-8.159 4.7-3.797.26-8.189-.28-11.065-3.02-2.807-2.67-2.898-5.73-2.836-9.39.005-.36.019-.71.029-1.06-.849-.43-1.549-.77-2.494-.94-16.468-2.95-45.121 10.3-58.693 18.76 2.839 5.06 5.71 10.08 7.016 15.79 1.082 4.73 1.55 10.43-1.39 14.61-1.827 2.6-4.977 4.12-8.073 4.49-6.65.82-18.46-1.74-23.681-6.08-3.788-3.15-3.647-12.65-4.128-17.47-5.898-5.42-13.128-9.65-18.156-15.95-.398-1.68-.842-2.31-.233-4 3.714-10.32 36.925-22.54 47.446-27.17-5.345-.83-10.943-1.52-16.056-3.36-5.373-1.94-10.533-5.55-12.913-10.89-3.467-7.77-1.106-17.23 2.058-24.72 11.222-26.55 34.867-45.52 60.901-56.23-7.311-1.1-14.171-1.88-20.127-6.73-3.554-2.9-5.868-6.99-6.251-11.59-.97-11.64 8.745-24.14 15.851-32.41 20.847-24.29 48.329-22.89 76.646-13.25 5.011 1.71 10.348 5.86 15.676 5.42 2.816-.23 6.279-.26 8.844 1.07 8.442 4.38 14.078 15.09 16.703 23.82 2.226 7.4 2.794 15.66-1.011 22.65-.595 1.09-1.21 2.07-1.6 3.25-.724 2.21-.374 2.37.652 4.35 1.945.97 2.66 1.81 4.798 1.2 19.135-29.82 31.472-44.22 61.759-63.09 7.99-4.98 18.989-9.64 25.33-16.56 11.633-12.7 32.93-60.53 41.229-77.52-9.577-39.23 19.104-48.32 37.704-75.91 12.851-19.06 23.202-41.44 31.529-62.84-8.331.59-16.849 2.07-25.072 3.54-6.206 1.11-13.971 2.37-19.319 5.94-12.162 8.13-37.648 44.61-46.977 57.96 1.037 5.39 3.919 15.28 2.651 20.51-4.681-.13-12.59-12.06-18.481-15.3l-1.111-.6c-1.671 6.49-3.211 13.14-5.387 19.48-1.066 3.1-2.218 6.22-5.332 7.71-2.289-.84-3.325-1.11-4.883-3.1-3.772-4.82-3.435-14.45-2.733-20.24 3.067-25.32 41.958-83.9 61.777-99.36 19.756-15.413 84.014-27.435 109.416-24.337-1.371-3.89-2.567-7.767-4.79-11.27-2.785-1.52-5.057-3.19-7.45-5.269 1.171-1.876 1.919-3.262 2.33-5.488l-1.442-1.533c-3.934-1.302-7.712-.931-11.774-.724 1.434-3.52 6.755-4.812 7.992-8.937l-1.162-1.436-5.897-.494c.75-3.019 4.874-5.744 6.643-8.673-1.745-2.004-6.878-1.917-9.604-2.969 1.949-2.835 9.381-5.003 12.661-6.359-1.096-.608-1.301-.397-2.503-.274l.827-.471c-3.871-1.388-7.837-1.713-11.896-2.185z"/>
  <path fill="#FCFAFA" d="M250.317 1367.92c3.642-5.63 7.493-14.58 12.631-18.64 2.194 1.34 2.529 2.22 3.462 4.5-.104 3.6-2.401 6.47-4.938 8.88-1.77 1.68-3.605 2.48-5.882 3.26-.742 1.04-1.64 2.1-2.236 3.22l-3.037-1.22z"/>
  <path fill="#B11A1A" d="M250.317 1367.92l3.037 1.22c1.396 5.32-4.186 10.17-3.812 15.77 2.185-4.02 6.868-15.82 10.532-17.61 1.247.68 1.92.63 2.37 2.05 2.932 9.32-4.177 21.81-2.95 31.9-2.459 8.69-5.165 17.47-6.983 26.32-7.151-1.17-16.402-4.06-20.662-10.3-2.763-4.04-3.056-8.82-2.189-13.51 1.962-10.62 11.598-29.62 20.657-35.84z"/>
  <path fill="#FCFAFA" d="M566.665 980.567c-.512 2.92-.236 6.169 1.596 8.64 3.049 4.115 9.657 4.577 14.333 5.445-4.285 12.098-15.249 46.158-25.109 53.538l-1.576-1.44c-8.758-23.3-4.415-37.63-21.553-59.245 4.542-.584 9.005-.557 13.567-.625 7.828-.115 12.995-.405 18.742-6.313z"/>
  <path fill="#B11A1A" d="M750.62 436.431a320.914 320.914 0 0156.296 2.084c55.766 6.806 111.289 28.495 146.73 73.904 57.204 73.294 66.734 190.817 55.744 280.108-15.089 18.622-27.398 39.756-40.661 59.704a11103.5 11103.5 0 00-88.378 136.499 1959.95 1959.95 0 00-23.524 37.75c-58.929 17.13-130.355 11.47-191.703 12.03 2.95-196.621 1.022-393.342 2.794-589.982 27.324-6.993 54.564-10.67 82.702-12.097z"/>
  <path fill="#FCFAFA" d="M783.702 533.299c23.97-1.589 48.247 4.229 67.124 19.619 32.139 26.204 40.879 80.532 44.97 119.545 6.716 64.038 4.803 187.024-37.08 238.639-22.787 24.792-50.339 29.961-82.353 32.747-1.002-86.734-.143-173.56-.13-260.304l-.04-96.08c-.02-17.295-.751-34.826.186-52.088 1.679-1.716 4.93-1.693 7.323-2.078z"/>
  <path fill="#000" d="M1096.21 100.441c19.72-1.507 40.28-.011 60.02 1.062a769.161 769.161 0 01323.68 90.681c12.99 7.081 26.27 13.99 38.67 22.079a11309.3 11309.3 0 00-92.91 100.36c12.07 12.723 25.62 24.8 38.83 36.338 9.53-9.262 98.89-105.426 99.97-108.436 7.82 2.607 16.32 10.151 22.98 15.078a819.536 819.536 0 01125.09 115.841c9.26 10.466 39.01 40.817 38.26 53.238-3.14 5.104-119.36 73.063-132.15 79.136.22.133.44.252.65.4 4.7 3.399 32.27 35.935 32.87 40.146 8.41-2.989 17-9.289 24.68-13.899 16.06-9.634 96.71-61.339 105.99-62.809 9.99 2.803 24.98 32.322 30.67 41.897a866.954 866.954 0 0174.6 162.723c3.06 8.92 10.06 23.56 7.73 32.68-8.86 6.272-135.62 48.124-150.35 50.822.97.962 1.97 2.061 2.65 3.249 3.6 6.226 14.69 40.122 12.92 45.757 15.26-3.492 30.32-8.872 45.23-13.63l67.91-21.478c9.78-3.066 19.71-6.792 29.65-9.172 1.69-.405 4.11-1.079 5.57-.029 4.58 3.297 6.06 14.735 7.1 20.022a859.767 859.767 0 0112.75 229.483c-.65 8.12.03 24.1-4.29 30.53.23.67.25.7.44 1.49 1.85 7.64-5.07 48.95-9.38 55.8-15.29-.37-30.71.27-46.01.26l-111.03-.08c-19.84 0-41.67 1.8-61.34-.52-5.16-.6-7.7-1.46-8.72-6.92-1.68-9.03 1.28-20.65 1.98-29.89a823.28 823.28 0 001.74-36.23 817.089 817.089 0 00-3.18-93.398A745.624 745.624 0 001532 537.86c-172.92-221.027-468.27-332.922-744.48-289.588a842.56 842.56 0 00-107.663 24.531c-12.688 3.862-58.968 22.889-68.168 21.762-2.348-1.835-2.364-2.709-3.293-5.466.309-3.007 1.856-4.859 3.891-7.004 11.887-12.531 40.475-31.731 55.7-42.497 124.932-88.337 276.181-133.657 428.223-139.157z"/>
  <path fill="#B11A1A" d="M1485.84 215.083c2.91 1.114 4.1.927 5.44 3.83-1.3 4.644-54.94 59.609-62.68 67.859-6.21 6.612-15.49 14.524-19.71 22.535-1.68 3.194-2.22 8.087-.28 11.267 9.54 15.644 33.48 30.248 45.95 45.053-11 12.238-23.13 23.577-34.95 35.02-25.13-17.358-47.74-36.739-74.32-52.291 18.06-20.871 40.34-38.903 60.45-57.82 26.67-25.085 52.53-51.381 80.1-75.453z"/>
  <path fill="#CF9E20" d="M1566.57 264.736c7.02 3.259 31.14 19.847 34.46 26.219-1.32 7.268-127.23 118.992-146.47 139.307-11.22-10.184-22.43-21.038-34.95-29.615 11.82-11.443 23.95-22.782 34.95-35.02.89.648 1.78 1.292 2.72 1.858 3.14 1.883 7.17 2.82 10.71 1.579 5.17-1.807 96.26-98.626 98.58-104.328z"/>
  <path fill="#CF9E20" d="M1601.03 290.955c7.16 2.905 14.86 10.862 20.3 16.256l.46 1.716c5.5 2.76 20.16 13.967 22.14 19.33-1.07 7.022-132.85 125.059-148.5 140.668a867.226 867.226 0 00-22.79-21.712c-6.42-5.059-12.2-11.272-18.08-16.951 19.24-20.315 145.15-132.039 146.47-139.307z"/>
  <path fill="#B11A1A" d="M1601.03 290.955c7.16 2.905 14.86 10.862 20.3 16.256l.46 1.716c-50.44 45.233-98.11 93.776-149.15 138.286-6.42-5.059-12.2-11.272-18.08-16.951 19.24-20.315 145.15-132.039 146.47-139.307z"/>
  <path fill="#CF9E20" d="M675.694 256.817c9.125-8.216 19.928-15.064 30.201-21.738 61.845-40.178 138.51-72.381 209.538-91.384 189.647-50.738 399.817-27.318 570.407 71.388-27.57 24.072-53.43 50.368-80.1 75.453-20.11 18.917-42.39 36.949-60.45 57.82-22.94-13.838-45.85-27.315-69.83-39.304a830.764 830.764 0 00-495.794-76.458c-35.112 5.584-70.22 12.945-103.972 24.223z"/>
  <path fill="#B11A1A" d="M1643.93 328.257c11.27 5.59 81.24 80.259 84.29 91.53.08.313.08.643.12.964-.2.304-.4.616-.62.913-4.28 5.891-18.79 11.726-25.26 15.513-20.51 12.015-40.68 24.65-61.12 36.797-12.56 7.462-28.91 14.802-39.65 24.602-1.7 1.552-2.25 2.459-1.81 4.767 2.02 10.751 37.61 52.675 47.25 59.03 2.49 1.641 4.44 1.825 7.3 1.141 9.45-2.266 111.33-65.289 124.02-75.174 4.84 4.285 8.64 11.989 12.07 17.496a862.891 862.891 0 0175.72 156.456c3.45 9.264 9.1 21.498 10.24 31.309.16 1.405-.04 2.349-.31 3.721-30.6 9.756-60.72 20.601-91.14 30.822-15.01 5.039-31.21 8.803-45.72 14.932-2.64 1.117-5.54 2.316-7.01 4.922-5.51 9.758 10.25 50.765 14.04 62.506 1.44 4.473 4.55 10.345 8.75 12.666 3.29 1.813 7.84.637 11.32-.092 16.94-3.546 33.69-10.174 50.19-15.449 25.9-8.28 51.96-16.125 77.63-25.075.95-.33 1.79-.767 2.65-1.282 5.15 5.364 6.01 20.691 7.14 28.071a895.22 895.22 0 019.81 159.409c-.4 19.989-3.58 102.168-13.03 113.278-64.72.3-129.96 1.49-194.66-.22 4.24-7.62 3.66-34.85 3.81-44.72.39-24.34.86-49.091-.37-73.403A836.982 836.982 0 001677 777.166c-24.49-85.551-72.19-174.513-126.76-244.5-11.07-14.195-23.05-27.972-35.03-41.404-6.57-7.364-13.85-14.473-19.78-22.337 15.65-15.609 147.43-133.646 148.5-140.668z"/>
</svg>
